<?xml version="1.0" encoding="UTF-8" standalone="no"?>
<!-- Generator: Adobe Illustrator 17.0.1, SVG Export Plug-In . SVG Version: 6.00 Build 0)  -->

<svg
   version="1.1"
   x="0px"
   y="0px"
   width="86px"
   height="86px"
   viewBox="0 0 86 86"
   enable-background="new 0 0 86 86"
   xml:space="preserve"
   id="svg17"
   sodipodi:docname="harbour-musicex.svg"
   inkscape:version="1.1.1 (3bf5ae0d25, 2021-09-20)"
   xmlns:inkscape="http://www.inkscape.org/namespaces/inkscape"
   xmlns:sodipodi="http://sodipodi.sourceforge.net/DTD/sodipodi-0.dtd"
   xmlns:xlink="http://www.w3.org/1999/xlink"
   xmlns="http://www.w3.org/2000/svg"
   xmlns:svg="http://www.w3.org/2000/svg"><defs
   id="defs21">
	<linearGradient
   id="Gradient"
   gradientUnits="userSpaceOnUse"
   x1="12.8065"
   y1="73.1935"
   x2="85.2829"
   y2="0.7171">
		<stop
   offset="0"
   style="stop-color:#e99104;stop-opacity:1"
   id="stop3" />
		<stop
   offset="0.9951"
   style="stop-color:#f6c11b;stop-opacity:1"
   id="stop5" />
	</linearGradient>
	
	
	
<linearGradient
   inkscape:collect="always"
   xlink:href="#Gradient"
   id="linearGradient869"
   x1="0.30000001"
   y1="43"
   x2="85.699997"
   y2="43"
   gradientUnits="userSpaceOnUse" /></defs><sodipodi:namedview
   id="namedview19"
   pagecolor="#ffffff"
   bordercolor="#666666"
   borderopacity="1.0"
   inkscape:pageshadow="2"
   inkscape:pageopacity="0.0"
   inkscape:pagecheckerboard="0"
   showgrid="false"
   inkscape:zoom="14.651163"
   inkscape:cx="7.2007935"
   inkscape:cy="36.823015"
   inkscape:window-width="3840"
   inkscape:window-height="2033"
   inkscape:window-x="0"
   inkscape:window-y="0"
   inkscape:window-maximized="1"
   inkscape:current-layer="svg17" />
<g
   id="Layer_2"
   display="none">
</g>
<path
   fill="url(#SVGID_1_)"
   d="m 85.699,1.723 c 0,-0.786 -0.637,-1.423 -1.423,-1.423 0,0 -40.641,0 -41.276,0 C 19.417,0.3 0.3,19.417 0.3,43 0.3,66.582 19.417,85.7 43,85.7 66.583,85.7 85.7,66.582 85.7,43 85.7,42.364 85.699,1.723 85.699,1.723 Z"
   id="path8"
   style="fill:url(#linearGradient869);fill-opacity:1.0" /><g
   id="g12"
   style="fill:#eff570;fill-opacity:1">
		<circle
   fill="#ffa6a3"
   cx="43"
   cy="43"
   r="32.025002"
   id="circle10"
   style="fill:#eff570;fill-opacity:1" />
	</g>
<g
   id="g1675"
   transform="matrix(0.7100612,0.70413997,-0.78190411,0.78847927,1.9572952,-63.985386)"><rect
     style="fill:#000000;fill-opacity:1;stroke:none;stroke-width:2425.6;stroke-linecap:square"
     id="rect1160"
     width="1"
     height="55"
     x="-101"
     y="15"
     transform="scale(-1,1)" /><rect
     style="fill:#000000;fill-opacity:1;stroke:none;stroke-width:2425.6;stroke-linecap:square"
     id="rect1160-3"
     width="1"
     height="55"
     x="-105"
     y="15"
     transform="scale(-1,1)" /><rect
     style="fill:#000000;fill-opacity:1;stroke:none;stroke-width:2425.6;stroke-linecap:square"
     id="rect1160-6"
     width="1"
     height="55"
     x="-107"
     y="15"
     transform="scale(-1,1)" /><rect
     style="fill:#000000;fill-opacity:1;stroke:none;stroke-width:2425.6;stroke-linecap:square"
     id="rect1160-2"
     width="1"
     height="55"
     x="-109"
     y="15"
     transform="scale(-1,1)" /><rect
     style="fill:#000000;fill-opacity:1;stroke:none;stroke-width:2425.6;stroke-linecap:square"
     id="rect1160-5"
     width="1"
     height="55"
     x="-103"
     y="15"
     transform="scale(-1,1)" /></g><path
   id="path3007"
   sodipodi:nodetypes="csccccccccccccccccccsccsccccccccccccccccsccccccccccccccccc"
   style="fill:#000000;stroke-width:0.173906"
   inkscape:connector-curvature="0"
   d="m 24.272452,22.211005 c -0.611465,0.591158 -0.06849,1.401414 0.408164,2.506171 0.127203,0.294835 0.266983,0.600335 0.409854,0.908526 -0.01948,0.01147 -0.07887,0.03961 -0.141905,0.06941 -0.230224,-0.221822 -0.85306,0.0839 -0.850928,0.09264 0.02441,0.256476 0.102535,0.508994 0.524486,0.732758 0.164701,-0.182135 0.450101,-0.374071 0.418657,-0.626909 l 0.139008,-0.07574 c 0.416691,0.890523 0.858096,1.783772 1.174468,2.483384 -0.0092,0.0077 -0.08278,0.04052 -0.152916,0.07366 -0.230212,-0.221824 -0.853059,0.08391 -0.850927,0.09264 0.02441,0.256476 0.102535,0.508995 0.524481,0.732763 0.164701,-0.182135 0.450106,-0.374076 0.418667,-0.626908 l 0.146908,-0.08011 c 0.03807,0.08641 0.07457,0.171615 0.107475,0.250167 0.867901,-0.32182 1.589135,-0.153346 2.19918,0.393114 4.33519,5.120431 9.269311,10.266867 13.880484,15.314727 -0.001,9.67e-4 -0.01766,0.01646 -0.01766,0.01646 0.648354,0.62552 0.506752,1.562053 0.372932,2.49409 l 9.508023,20.841788 c 0.763177,2.1816 2.380136,1.381377 2.400807,-0.142223 0.189047,-13.938231 -3.276849,-13.229495 12.139605,-11.534034 2.469748,0.356507 3.014233,-1.503781 0.601237,-2.477064 0,0 -20.503144,-10.79491 -20.593542,-10.70825 -0.490596,0.464246 -2.335076,-0.316108 -2.286779,-0.458145 0.0027,-0.0077 -0.01072,-0.0011 -0.0299,0.01289 L 30.345651,27.644747 c -0.482284,-0.638884 -0.600443,-1.344305 -0.01641,-2.320458 -0.206772,-0.138994 -0.764387,-0.526823 -1.434902,-0.976947 l 0.101596,-0.157601 c 0.250042,0.04906 0.461457,-0.222247 0.654653,-0.3738 -0.193708,-0.436565 -0.440138,-0.532165 -0.694293,-0.574437 -0.0084,-0.003 -0.357065,0.597163 -0.151918,0.842367 -0.03799,0.06766 -0.07608,0.138612 -0.08418,0.14739 -0.347525,-0.231831 -0.710785,-0.471993 -1.087799,-0.710649 l 0.07532,-0.115147 c 0.250036,0.04905 0.461458,-0.222247 0.654643,-0.3738 -0.193704,-0.436569 -0.440138,-0.532165 -0.694288,-0.574443 -0.0083,-0.0029 -0.35706,0.59717 -0.151918,0.842367 -0.02387,0.04256 -0.04438,0.08179 -0.0612,0.111011 -0.09123,-0.05712 -0.182392,-0.115177 -0.272963,-0.170731 -1.43599,-0.880395 -2.143901,-1.795176 -2.845867,-1.086711 -0.02207,0.01866 -0.04423,0.03755 -0.0639,0.05671 z m 0.510058,4.923421 c 0.02441,0.25648 0.10253,0.508999 0.524482,0.732762 0.1647,-0.182134 0.450112,-0.374067 0.418662,-0.626902 l 0.164332,-0.09032 -0.102054,-0.183351 c -0.0071,0.0066 -0.08307,0.04145 -0.154521,0.07516 -0.230216,-0.221829 -0.853059,0.0839 -0.850923,0.09264 z m 5.304206,-3.082808 c -0.0083,-0.0029 -0.35706,0.597168 -0.151919,0.842366 -0.03866,0.06886 -0.07869,0.142271 -0.08578,0.148881 l 0.175763,0.114622 0.101595,-0.157602 c 0.250041,0.04906 0.461458,-0.222248 0.654653,-0.373799 -0.193709,-0.436567 -0.440138,-0.532165 -0.694292,-0.574439 z" /></svg>
